<svg xmlns="http://www.w3.org/2000/svg" xmlns:svg="http://www.w3.org/2000/svg" id="svg8" width="304.913" height="84mm" version="1.1" viewBox="0 0 80.675 84"><metadata id="metadata5"/><g id="layer1" transform="translate(-99.662509,-115)"><ellipse style="fill:none;fill-opacity:1;stroke:#000;stroke-width:1.35000002;stroke-miterlimit:4;stroke-dasharray:none;stroke-opacity:1" id="path3722" cx="140" cy="157" rx="39.662" ry="39.662"/><circle style="fill:none;fill-opacity:1;stroke:#000;stroke-width:1.35000002;stroke-miterlimit:4;stroke-dasharray:none;stroke-opacity:1" id="path3722-3" cx="140.084" cy="156.916" r="29.747"/><circle style="fill:#000;fill-opacity:1;stroke:#000;stroke-width:.45250136;stroke-miterlimit:4;stroke-dasharray:none;stroke-opacity:1" id="path4547" cx="140" cy="197" r="1.774"/><circle style="fill:#000;fill-opacity:1;stroke:#000;stroke-width:.45250136;stroke-miterlimit:4;stroke-dasharray:none;stroke-opacity:1" id="path4547-6" cx="140" cy="187" r="1.774"/><circle style="fill:#000;fill-opacity:1;stroke:#000;stroke-width:.45250136;stroke-miterlimit:4;stroke-dasharray:none;stroke-opacity:1" id="path4547-7" cx="140" cy="127" r="1.774"/><circle style="fill:#000;fill-opacity:1;stroke:#000;stroke-width:.45250136;stroke-miterlimit:4;stroke-dasharray:none;stroke-opacity:1" id="path4547-5" cx="140" cy="117" r="1.774"/><circle style="fill:#000;fill-opacity:1;stroke:#000;stroke-width:.45250136;stroke-miterlimit:4;stroke-dasharray:none;stroke-opacity:1" id="path4547-7-3" cx="174.641" cy="177" r="1.774"/><circle style="fill:#000;fill-opacity:1;stroke:#000;stroke-width:.45250136;stroke-miterlimit:4;stroke-dasharray:none;stroke-opacity:1" id="path4547-7-5" cx="105.359" cy="137" r="1.774"/><circle style="fill:#000;fill-opacity:1;stroke:#000;stroke-width:.45250136;stroke-miterlimit:4;stroke-dasharray:none;stroke-opacity:1" id="path4547-7-6" cx="174.641" cy="137" r="1.774"/><circle style="fill:#000;fill-opacity:1;stroke:#000;stroke-width:.45250136;stroke-miterlimit:4;stroke-dasharray:none;stroke-opacity:1" id="path4547-7-2" cx="105.359" cy="177" r="1.774"/><g style="display:inline" id="text10003" transform="matrix(0.68434559,0,0,0.69592109,44.617198,73.240143)"><path id="path4595" d="m 141.65312,126.90327 c 9.94,-1.05 15.26,-6.51 15.26,-15.82 0,-6.44 -2.73,-11.340003 -7.77,-14.070003 -3.15,-1.75 -7.63,-2.52 -14.49,-2.52 h -12.81 v 51.730003 h 5.18 V 99.183267 h 7.28 c 5.46,0 9.1,0.56 11.9,1.890003 3.5,1.68 5.46,5.18 5.46,9.87 0,5.88 -2.66,9.59 -7.84,10.92 -2.45,0.63 -5.53,0.91 -11.55,0.91 l 17.43,23.45 h 6.44 z"/></g></g></svg>