<svg xmlns="http://www.w3.org/2000/svg" xmlns:svg="http://www.w3.org/2000/svg" id="svg8" width="60.474" height="64.83" version="1.1" viewBox="0 0 16 17.153"><metadata id="metadata5"/><g id="layer1" transform="translate(-132.08417,-143.36569)"><circle style="fill:none;fill-opacity:1;stroke:#000;stroke-width:.69499999;stroke-miterlimit:4;stroke-dasharray:none;stroke-opacity:1" id="path3722-3" cx="140.084" cy="152.518" r="7.653"/><circle style="fill:#000019;fill-opacity:1;stroke:#000;stroke-width:.33937511;stroke-miterlimit:4;stroke-dasharray:none;stroke-opacity:1" id="path4547-7" cx="140.084" cy="144.866" r="1.33"/><g style="display:inline" id="text10003" transform="matrix(0.1710864,0,0,0.17398027,116.23867,131.57854)"><path id="path4595" d="m 141.65312,126.90327 c 9.94,-1.05 15.26,-6.51 15.26,-15.82 0,-6.44 -2.73,-11.340003 -7.77,-14.070003 -3.15,-1.75 -7.63,-2.52 -14.49,-2.52 h -12.81 v 51.730003 h 5.18 V 99.183267 h 7.28 c 5.46,0 9.1,0.56 11.9,1.890003 3.5,1.68 5.46,5.18 5.46,9.87 0,5.88 -2.66,9.59 -7.84,10.92 -2.45,0.63 -5.53,0.91 -11.55,0.91 l 17.43,23.45 h 6.44 z"/></g></g></svg>